<svg version="1.2" xmlns="http://www.w3.org/2000/svg" viewBox="0 0 384 449" width="384" height="449">
	<g id="Layer">
		<path id="Layer" fill-rule="evenodd" class="s0" d="m241.1 126.6c-31.2-11.7-65.4-11.9-96.7-0.6-31.2 11.4-57.4 33.5-73.7 62.5-16.4 28.9-21.8 62.8-15.4 95.4 6.4 32.6 24.3 61.8 50.3 82.4 26.1 20.7 58.7 31.2 91.9 29.9 33.3-1.3 64.9-14.4 89.3-37.1 24.3-22.6 39.8-53.1 43.6-86.2 3.8-33-4.3-66.3-22.9-93.8-8.1-12-4.9-28.2 7-36.3 12-8.1 28.2-4.9 36.3 7 25.6 37.9 36.8 83.7 31.5 129.1-5.2 45.4-26.5 87.5-60 118.6-33.5 31.1-77 49.1-122.7 51-45.7 1.8-90.5-12.8-126.4-41.1-35.8-28.4-60.4-68.6-69.2-113.4-8.8-44.9-1.3-91.4 21.2-131.2 22.4-39.8 58.4-70.3 101.4-85.9 42.9-15.6 90.1-15.3 132.9 0.8 13.5 5.1 20.3 20.1 15.2 33.6-5.1 13.5-20.1 20.4-33.6 15.3z"/>
		<path id="Layer" fill-rule="evenodd" class="s0" d="m207 183.5c-11.8 8.3-28.1 5.4-36.4-6.4-8.3-11.9-5.4-28.2 6.4-36.4l57.6-40.3-34.7-60.6c-7.2-12.6-2.8-28.5 9.7-35.7 12.5-7.2 28.5-2.8 35.6 9.7l43.2 75.4c8.6 15.1 4.3 34.2-9.9 44.2z"/>
	</g>
</svg>