<svg xmlns="http://www.w3.org/2000/svg" xmlns:xlink="http://www.w3.org/1999/xlink"><defs><style>
    .sprite-symbol-usage {display: none;}
    .sprite-symbol-usage:target {display: inline;}
  </style><symbol viewBox="0 0 24 24" stroke="currentColor" id="icon-arrow-bottom"><path stroke-linecap="round" stroke-linejoin="round" stroke-width="2" d="m17 13-5 5m0 0-5-5m5 5V6" /></symbol><symbol viewBox="0 0 24 24" stroke="currentColor" id="icon-arrow-right"><path stroke-linecap="round" stroke-linejoin="round" stroke-width="2" d="m13 7 5 5m0 0-5 5m5-5H6" /></symbol><symbol fill="none" viewBox="0 0 24 24" stroke="currentColor" id="icon-caret-right"><path stroke-linecap="round" stroke-linejoin="round" stroke-width="2" d="m9 5 7 7-7 7" /></symbol><symbol viewBox="0 0 24 24" id="icon-close"><path d="M0 0h24v24H0z" fill="none" /><path d="M19 6.41 17.59 5 12 10.59 6.41 5 5 6.41 10.59 12 5 17.59 6.41 19 12 13.41 17.59 19 19 17.59 13.41 12z" /></symbol><symbol viewBox="0 0 640 480" id="icon-en"><path fill="#012169" d="M0 0h640v480H0z" /><path fill="#FFF" d="m75 0 244 181L562 0h78v62L400 241l240 178v61h-80L320 301 81 480H0v-60l239-178L0 64V0h75z" /><path fill="#C8102E" d="m424 281 216 159v40L369 281h55zm-184 20 6 35L54 480H0l240-179zM640 0v3L391 191l2-44L590 0h50zM0 0l239 176h-60L0 42V0z" /><path fill="#FFF" d="M241 0v480h160V0H241zM0 160v160h640V160H0z" /><path fill="#C8102E" d="M0 193v96h640v-96H0zM273 0v480h96V0h-96z" /></symbol><symbol viewBox="0 0 640 480" id="icon-fr"><g fill-rule="evenodd" stroke-width="1pt"><path fill="#fff" d="M0 0h640v480H0z" /><path fill="#002654" d="M0 0h213.3v480H0z" /><path fill="#ce1126" d="M426.7 0H640v480H426.7z" /></g></symbol><symbol fill="none" viewBox="0 0 24 24" stroke="currentColor" id="icon-menu"><path stroke-linecap="round" stroke-linejoin="round" stroke-width="2" d="M4 6h16M4 12h16M4 18h16" /></symbol></defs><use id="icon-arrow-bottom-usage" xlink:href="#icon-arrow-bottom" class="sprite-symbol-usage" /><use id="icon-arrow-right-usage" xlink:href="#icon-arrow-right" class="sprite-symbol-usage" /><use id="icon-caret-right-usage" xlink:href="#icon-caret-right" class="sprite-symbol-usage" /><use id="icon-close-usage" xlink:href="#icon-close" class="sprite-symbol-usage" /><use id="icon-en-usage" xlink:href="#icon-en" class="sprite-symbol-usage" /><use id="icon-fr-usage" xlink:href="#icon-fr" class="sprite-symbol-usage" /><use id="icon-menu-usage" xlink:href="#icon-menu" class="sprite-symbol-usage" /></svg>